<svg width="202" height="228" viewBox="0 0 202 228" fill="none" xmlns="http://www.w3.org/2000/svg">
<path d="M101.118 60.6311L92.3438 47.9287L101.118 49.893L109.237 47.9287L101.118 60.6311Z" fill="white"/>
<path d="M121.241 104.574L116.939 101.512H122.218L123.978 96L125.542 101.512H130.82L126.519 104.574L128.083 109.881L123.782 106.615L119.286 109.881L121.241 104.574Z" fill="white"/>
<path d="M144.121 104.574L139.82 101.512H145.099L146.859 96L148.423 101.512H153.701L149.4 104.574L150.964 109.881L146.663 106.615L142.166 109.881L144.121 104.574Z" fill="white"/>
<path d="M98.3597 104.574L94.0586 101.512H99.3373L101.097 96L102.661 101.512H107.94L103.638 104.574L105.202 109.881L100.901 106.615L96.6002 109.881L98.3597 104.574Z" fill="white"/>
<path d="M75.4789 104.574L71.1777 101.512H76.4564L78.216 96L79.78 101.512H85.0587L80.7575 104.574L82.3216 109.881L78.0205 106.615L73.7193 109.881L75.4789 104.574Z" fill="white"/>
<path d="M52.598 104.574L48.2969 101.512H53.5755L55.3351 96L56.8992 101.512H62.1778L57.8767 104.574L59.4407 109.881L55.1396 106.615L50.8385 109.881L52.598 104.574Z" fill="white"/>
<path d="M132.285 44.7861L100.856 90.7504L69.2969 44.7861C72.5707 45.0917 79.9826 45.9123 83.4397 46.7504C86.8969 47.5885 90.2929 52.1631 91.5588 54.3457L100.856 68.0957C102.995 64.7782 107.823 57.3838 110.023 54.3457C112.773 50.548 114.475 47.929 118.797 46.7504C122.254 45.8076 129.229 45.048 132.285 44.7861Z" fill="white"/>
<path d="M99.4561 46.0953C102.599 47.012 106.784 46.5032 110.194 43.0834C113.981 39.2858 114.112 32.926 114.123 29.4643C114.122 30.6429 113.086 33.3347 112.158 34.9643C110.445 37.9762 107.695 38.631 106.528 38.631C105.993 38.631 104.552 38.3691 104.694 36.5358C104.888 34.0402 107.706 32.0834 109.278 29.7262C110.849 27.3691 111.624 24.3572 110.587 19.7739C109.837 16.4579 107.051 12.0477 107.051 12.1786C107.051 12.3096 106.92 14.6667 106.397 16.631C105.873 18.5953 105.207 21.0834 102.337 24.0953C99.3287 27.2525 96.6406 29.3334 95.2656 31.1667C94.087 32.7382 92.8974 35.4882 93.1704 38.631C93.4992 42.4166 96.3132 45.1786 99.4561 46.0953Z" fill="white"/>
<path d="M90.3803 36.4048C90.3803 40.2024 91.1659 41.7738 91.6898 42.9524C90.2493 42.2976 88.9398 40.8571 87.8921 38.8929C86.7897 36.8259 85.9597 34.1772 86.0588 30.5119C86.2863 22.0933 89.8565 17.2857 91.4279 15.7757C91.9517 15.1905 91.6104 15.9287 91.5588 16.2381C90.7396 21.1534 94.1779 21.6071 94.4398 21.6071H94.4458C94.7219 21.6072 96.0682 21.6077 97.0588 20.1667C98.2291 18.4643 97.3124 16.7619 96.535 15.0595C96.3389 14.63 95.3564 13.0952 95.3564 10.6071C95.3564 7.59524 96.666 5.36905 97.3207 4.19048C97.8445 3.24762 98.3683 2.4881 100.202 0C100.769 0.785714 102.061 2.64524 102.69 3.79762C103.475 5.2381 104.392 6.94048 105.047 10.869C105.6 14.19 104.387 16.8895 102.821 19.381C99.9398 23.9643 97.4517 24.881 94.1779 28.2857C90.9586 31.6337 90.3803 34.1786 90.3803 36.4048Z" fill="white"/>
<g opacity="0.5">
<path d="M132.286 44.7861L100.857 68.0957C103.738 63.6433 109.733 54.9049 111.988 51.7266C114.869 47.6671 117.096 47.0123 122.072 46.0957C124.422 45.6627 129.536 45.048 132.286 44.7861Z" fill="white"/>
<path d="M69.2979 44.7861L100.857 68.0957C97.8455 63.7742 92.6074 55.9171 89.3336 51.2028C87.4293 48.4605 84.7503 46.7849 79.5122 46.0957C72.4425 45.1654 72.0479 45.048 69.2979 44.7861Z" fill="white"/>
</g>
<path d="M109.75 20.9528C109.881 18.4647 108.571 15.3218 107.786 13.2266L107.786 13.2266C108.44 14.4052 109.75 16.7623 110.285 18.5956L110.29 18.6105C110.973 20.9499 111.394 22.3901 110.809 26.1908C110.285 29.5956 106.881 32.4766 106.095 33.5242C105.015 34.9647 104.493 36.1505 104.785 37.3218C105.127 38.6899 106.652 38.6684 106.954 38.6399C106.976 38.6343 106.991 38.6313 107 38.6313C107.017 38.6313 106.999 38.6357 106.954 38.6399C106.656 38.7175 105.182 39.2949 103.595 39.417C101.893 39.548 100.558 38.9288 100.059 38.3694C98.8926 37.0599 98.8926 35.6194 99.2736 34.3099C99.6636 32.97 100.452 31.6908 102.286 30.1194C104.119 28.548 104.524 28.8099 106.738 26.9766C108.78 25.2856 109.619 23.4408 109.75 20.9528Z" fill="white"/>
<path d="M100.725 17.4489C100.725 22.5039 94.5629 21.8093 94.1777 21.6071H94.3087C96.0419 21.6071 97.4515 20.4819 97.4515 18.4599C97.4515 16.4379 95.3332 14.4159 95.3332 10.3719C95.3332 5.63095 100.202 0 100.202 0C98.6609 2.6286 97.6441 5.72129 97.4515 8.55209C97.4515 13.2027 100.725 13.6071 100.725 17.4489Z" fill="white"/>
<path d="M88.9126 129.881V118.873H91.1046V129.881H88.9126ZM85.3286 120.569V118.633H94.6886V120.569H85.3286ZM100.783 130.057C99.9619 130.057 99.1939 129.908 98.4792 129.609C97.7752 129.31 97.1565 128.9 96.6232 128.377C96.1005 127.844 95.6899 127.225 95.3912 126.521C95.0925 125.806 94.9432 125.044 94.9432 124.233C94.9432 123.422 95.0872 122.67 95.3752 121.977C95.6739 121.273 96.0845 120.66 96.6072 120.137C97.1405 119.604 97.7592 119.193 98.4632 118.905C99.1672 118.606 99.9299 118.457 100.751 118.457C101.583 118.457 102.351 118.606 103.055 118.905C103.759 119.193 104.373 119.604 104.895 120.137C105.429 120.66 105.845 121.273 106.143 121.977C106.442 122.681 106.591 123.438 106.591 124.249C106.591 125.06 106.442 125.817 106.143 126.521C105.845 127.225 105.429 127.844 104.895 128.377C104.373 128.9 103.759 129.31 103.055 129.609C102.362 129.908 101.605 130.057 100.783 130.057ZM100.751 128.025C101.477 128.025 102.106 127.865 102.639 127.545C103.173 127.225 103.589 126.782 103.887 126.217C104.197 125.652 104.351 124.99 104.351 124.233C104.351 123.678 104.266 123.172 104.095 122.713C103.925 122.254 103.679 121.86 103.359 121.529C103.039 121.188 102.661 120.926 102.223 120.745C101.786 120.564 101.295 120.473 100.751 120.473C100.047 120.473 99.4232 120.633 98.8792 120.953C98.3459 121.262 97.9245 121.7 97.6152 122.265C97.3165 122.83 97.1672 123.486 97.1672 124.233C97.1672 124.798 97.2525 125.316 97.4232 125.785C97.6045 126.254 97.8499 126.654 98.1592 126.985C98.4792 127.316 98.8579 127.572 99.2952 127.753C99.7432 127.934 100.229 128.025 100.751 128.025ZM109.916 125.705V123.929H112.524C112.865 123.929 113.175 123.86 113.452 123.721C113.729 123.582 113.948 123.385 114.108 123.129C114.268 122.862 114.348 122.542 114.348 122.169C114.348 121.806 114.268 121.492 114.108 121.225C113.948 120.958 113.729 120.756 113.452 120.617C113.175 120.478 112.865 120.409 112.524 120.409H109.916V118.633H112.748C113.463 118.633 114.103 118.777 114.668 119.065C115.244 119.353 115.697 119.764 116.028 120.297C116.359 120.82 116.524 121.444 116.524 122.169C116.524 122.894 116.359 123.524 116.028 124.057C115.697 124.58 115.244 124.985 114.668 125.273C114.103 125.561 113.463 125.705 112.748 125.705H109.916ZM108.316 129.881V118.633H110.492V129.881H108.316ZM41.5697 147.881V145.945H44.4337C45.159 145.945 45.7937 145.796 46.3377 145.497C46.8817 145.188 47.303 144.756 47.6017 144.201C47.911 143.646 48.0657 142.99 48.0657 142.233C48.0657 141.497 47.911 140.857 47.6017 140.313C47.2924 139.758 46.8657 139.332 46.3217 139.033C45.7777 138.724 45.1484 138.569 44.4337 138.569H41.5217V136.633H44.4657C45.2977 136.633 46.0657 136.772 46.7697 137.049C47.4844 137.326 48.103 137.721 48.6257 138.233C49.159 138.734 49.5697 139.326 49.8577 140.009C50.1564 140.692 50.3057 141.438 50.3057 142.249C50.3057 143.06 50.1564 143.812 49.8577 144.505C49.5697 145.188 49.1644 145.785 48.6417 146.297C48.119 146.798 47.5004 147.188 46.7857 147.465C46.0817 147.742 45.319 147.881 44.4977 147.881H41.5697ZM40.0817 147.881V136.633H42.2577V147.881H40.0817ZM52.0348 147.881V136.633H54.2108V147.881H52.0348ZM61.7192 148.041C60.9192 148.041 60.1672 147.897 59.4632 147.609C58.7699 147.31 58.1565 146.894 57.6232 146.361C57.1005 145.828 56.6899 145.214 56.3912 144.521C56.1032 143.817 55.9592 143.06 55.9592 142.249C55.9592 141.428 56.1085 140.67 56.4072 139.977C56.7059 139.273 57.1219 138.66 57.6552 138.137C58.1885 137.604 58.8125 137.193 59.5272 136.905C60.2419 136.606 61.0152 136.457 61.8472 136.457C62.7752 136.457 63.6285 136.633 64.4072 136.985C65.1859 137.326 65.8312 137.812 66.3432 138.441L64.8712 139.913C64.5192 139.454 64.0819 139.102 63.5592 138.857C63.0365 138.612 62.4605 138.489 61.8312 138.489C61.1165 138.489 60.4819 138.649 59.9272 138.969C59.3832 139.278 58.9565 139.716 58.6472 140.281C58.3379 140.836 58.1832 141.486 58.1832 142.233C58.1832 142.98 58.3325 143.641 58.6312 144.217C58.9405 144.782 59.3565 145.225 59.8792 145.545C60.4125 145.865 61.0205 146.025 61.7032 146.025C62.4072 146.025 63.0099 145.897 63.5112 145.641C64.0125 145.374 64.3965 144.99 64.6632 144.489C64.9299 143.977 65.0632 143.353 65.0632 142.617L66.4872 143.593L61.5752 143.545V141.657H67.3032V141.961C67.3032 143.305 67.0632 144.43 66.5832 145.337C66.1032 146.233 65.4419 146.91 64.5992 147.369C63.7672 147.817 62.8072 148.041 61.7192 148.041ZM68.9723 147.881V136.633H71.1483V147.881H68.9723ZM76.2407 147.881V136.873H78.4327V147.881H76.2407ZM72.6567 138.569V136.633H82.0167V138.569H72.6567ZM81.2184 147.881L85.7464 136.633H87.5224L92.0344 147.881H89.7144L86.2264 138.649H87.0264L83.4904 147.881H81.2184ZM83.6184 145.785V143.961H89.6664V145.785H83.6184ZM93.3629 147.881V136.633H95.5389V147.881H93.3629ZM94.9629 147.881V145.945H100.691V147.881H94.9629ZM106.742 147.881V145.945H109.606C110.331 145.945 110.966 145.796 111.51 145.497C112.054 145.188 112.475 144.756 112.774 144.201C113.083 143.646 113.238 142.99 113.238 142.233C113.238 141.497 113.083 140.857 112.774 140.313C112.464 139.758 112.038 139.332 111.494 139.033C110.95 138.724 110.32 138.569 109.606 138.569H106.694V136.633H109.638C110.47 136.633 111.238 136.772 111.942 137.049C112.656 137.326 113.275 137.721 113.798 138.233C114.331 138.734 114.742 139.326 115.03 140.009C115.328 140.692 115.478 141.438 115.478 142.249C115.478 143.06 115.328 143.812 115.03 144.505C114.742 145.188 114.336 145.785 113.814 146.297C113.291 146.798 112.672 147.188 111.958 147.465C111.254 147.742 110.491 147.881 109.67 147.881H106.742ZM105.254 147.881V136.633H107.43V147.881H105.254ZM117.207 147.881V136.633H119.383V147.881H117.207ZM118.807 147.881V145.961H125.031V147.881H118.807ZM118.807 143.065V141.209H124.471V143.065H118.807ZM118.807 138.553V136.633H124.951V138.553H118.807ZM129.814 148.041C128.908 148.041 128.129 147.886 127.478 147.577C126.838 147.268 126.257 146.804 125.734 146.185L127.174 144.745C127.505 145.182 127.889 145.524 128.326 145.769C128.764 146.004 129.297 146.121 129.926 146.121C130.492 146.121 130.94 146.009 131.27 145.785C131.612 145.561 131.782 145.252 131.782 144.857C131.782 144.516 131.686 144.238 131.494 144.025C131.302 143.812 131.046 143.63 130.726 143.481C130.417 143.332 130.07 143.198 129.686 143.081C129.313 142.953 128.934 142.809 128.55 142.649C128.177 142.489 127.83 142.292 127.51 142.057C127.201 141.812 126.95 141.502 126.758 141.129C126.566 140.745 126.47 140.265 126.47 139.689C126.47 139.006 126.636 138.425 126.966 137.945C127.297 137.465 127.75 137.097 128.326 136.841C128.902 136.585 129.553 136.457 130.278 136.457C131.046 136.457 131.74 136.601 132.358 136.889C132.977 137.177 133.484 137.55 133.878 138.009L132.438 139.449C132.108 139.086 131.766 138.82 131.414 138.649C131.073 138.478 130.684 138.393 130.246 138.393C129.745 138.393 129.35 138.489 129.062 138.681C128.774 138.873 128.63 139.15 128.63 139.513C128.63 139.822 128.726 140.073 128.918 140.265C129.11 140.457 129.361 140.622 129.67 140.761C129.99 140.9 130.337 141.033 130.71 141.161C131.094 141.289 131.473 141.433 131.846 141.593C132.23 141.753 132.577 141.961 132.886 142.217C133.206 142.473 133.462 142.804 133.654 143.209C133.846 143.604 133.942 144.094 133.942 144.681C133.942 145.726 133.574 146.548 132.838 147.145C132.102 147.742 131.094 148.041 129.814 148.041ZM135.66 147.881V136.633H137.836V147.881H135.66ZM145.344 148.041C144.544 148.041 143.792 147.897 143.088 147.609C142.395 147.31 141.782 146.894 141.248 146.361C140.726 145.828 140.315 145.214 140.016 144.521C139.728 143.817 139.584 143.06 139.584 142.249C139.584 141.428 139.734 140.67 140.032 139.977C140.331 139.273 140.747 138.66 141.28 138.137C141.814 137.604 142.438 137.193 143.152 136.905C143.867 136.606 144.64 136.457 145.472 136.457C146.4 136.457 147.254 136.633 148.032 136.985C148.811 137.326 149.456 137.812 149.968 138.441L148.496 139.913C148.144 139.454 147.707 139.102 147.184 138.857C146.662 138.612 146.086 138.489 145.456 138.489C144.742 138.489 144.107 138.649 143.552 138.969C143.008 139.278 142.582 139.716 142.272 140.281C141.963 140.836 141.808 141.486 141.808 142.233C141.808 142.98 141.958 143.641 142.256 144.217C142.566 144.782 142.982 145.225 143.504 145.545C144.038 145.865 144.646 146.025 145.328 146.025C146.032 146.025 146.635 145.897 147.136 145.641C147.638 145.374 148.022 144.99 148.288 144.489C148.555 143.977 148.688 143.353 148.688 142.617L150.112 143.593L145.2 143.545V141.657H150.928V141.961C150.928 143.305 150.688 144.43 150.208 145.337C149.728 146.233 149.067 146.91 148.224 147.369C147.392 147.817 146.432 148.041 145.344 148.041ZM152.597 147.881V136.633H154.117L154.773 138.809V147.881H152.597ZM160.373 147.881L153.701 139.241L154.117 136.633L160.789 145.273L160.373 147.881ZM160.373 147.881L159.749 145.769V136.633H161.941V147.881H160.373ZM68.445 165.881L72.973 154.633H74.749L79.261 165.881H76.941L73.453 156.649H74.253L70.717 165.881H68.445ZM70.845 163.785V161.961H76.893V163.785H70.845ZM85.1489 166.041C84.3489 166.041 83.5969 165.897 82.8929 165.609C82.1995 165.31 81.5862 164.894 81.0529 164.361C80.5302 163.828 80.1195 163.214 79.8209 162.521C79.5329 161.817 79.3889 161.06 79.3889 160.249C79.3889 159.428 79.5382 158.67 79.8369 157.977C80.1355 157.273 80.5515 156.66 81.0849 156.137C81.6182 155.604 82.2422 155.193 82.9569 154.905C83.6715 154.606 84.4449 154.457 85.2769 154.457C86.2049 154.457 87.0582 154.633 87.8369 154.985C88.6155 155.326 89.2609 155.812 89.7729 156.441L88.3009 157.913C87.9489 157.454 87.5115 157.102 86.9889 156.857C86.4662 156.612 85.8902 156.489 85.2609 156.489C84.5462 156.489 83.9115 156.649 83.3569 156.969C82.8129 157.278 82.3862 157.716 82.0769 158.281C81.7675 158.836 81.6129 159.486 81.6129 160.233C81.6129 160.98 81.7622 161.641 82.0609 162.217C82.3702 162.782 82.7862 163.225 83.3089 163.545C83.8422 163.865 84.4502 164.025 85.1329 164.025C85.8369 164.025 86.4395 163.897 86.9409 163.641C87.4422 163.374 87.8262 162.99 88.0929 162.489C88.3595 161.977 88.4929 161.353 88.4929 160.617L89.9169 161.593L85.0049 161.545V159.657H90.7329V159.961C90.7329 161.305 90.4929 162.43 90.0129 163.337C89.5329 164.233 88.8715 164.91 88.0289 165.369C87.1969 165.817 86.2369 166.041 85.1489 166.041ZM92.402 165.881V154.633H94.578V165.881H92.402ZM94.002 165.881V163.961H100.226V165.881H94.002ZM94.002 161.065V159.209H99.666V161.065H94.002ZM94.002 156.553V154.633H100.146V156.553H94.002ZM102.027 165.881V154.633H103.547L104.203 156.809V165.881H102.027ZM109.803 165.881L103.131 157.241L103.547 154.633L110.219 163.273L109.803 165.881ZM109.803 165.881L109.179 163.769V154.633H111.371V165.881H109.803ZM118.868 166.041C118.047 166.041 117.284 165.897 116.58 165.609C115.876 165.31 115.257 164.9 114.724 164.377C114.201 163.844 113.796 163.225 113.508 162.521C113.231 161.817 113.092 161.06 113.092 160.249C113.092 159.438 113.231 158.681 113.508 157.977C113.796 157.273 114.201 156.66 114.724 156.137C115.257 155.614 115.871 155.204 116.564 154.905C117.268 154.606 118.036 154.457 118.868 154.457C119.764 154.457 120.553 154.606 121.236 154.905C121.919 155.193 122.521 155.593 123.044 156.105L121.572 157.577C121.263 157.236 120.884 156.969 120.436 156.777C119.988 156.585 119.465 156.489 118.868 156.489C118.345 156.489 117.865 156.58 117.428 156.761C117.001 156.932 116.628 157.188 116.308 157.529C115.988 157.86 115.743 158.26 115.572 158.729C115.401 159.188 115.316 159.694 115.316 160.249C115.316 160.814 115.401 161.326 115.572 161.785C115.743 162.244 115.988 162.644 116.308 162.985C116.628 163.316 117.001 163.572 117.428 163.753C117.865 163.934 118.345 164.025 118.868 164.025C119.497 164.025 120.036 163.929 120.484 163.737C120.943 163.545 121.327 163.273 121.636 162.921L123.108 164.393C122.585 164.916 121.977 165.321 121.284 165.609C120.591 165.897 119.785 166.041 118.868 166.041ZM127.656 161.545L123.304 154.633H125.816L129.192 160.169H127.752L131.128 154.633H133.608L129.208 161.545H127.656ZM127.368 165.881V160.377H129.56V165.881H127.368Z" fill="white"/>
<path d="M157.449 186.881L168.551 186.881L164.399 176.381L168.551 165.881H152.949L157.449 170.881V186.881Z" fill="white"/>
<path d="M44.5508 186.881L33.4492 186.881L37.601 176.381L33.4492 165.881H49.0508L44.5508 170.881V186.881Z" fill="white"/>
<path d="M155.449 171.881H46.4492V192.881H155.449V171.881Z" fill="white"/>
<path d="M61.0856 179.426C61.631 179.699 62.0856 180.154 62.3583 180.608C62.631 181.154 62.8129 181.79 62.8129 182.335C62.8129 182.972 62.631 183.517 62.3583 184.063C62.0856 184.608 61.631 184.972 61.0856 185.244C60.5401 185.517 59.9038 185.699 59.2674 185.699H56.4492V178.881H59.2674C59.9038 178.972 60.5401 179.063 61.0856 179.426ZM60.4492 184.335C60.8129 184.154 61.0856 183.881 61.2674 183.517C61.631 182.79 61.631 181.881 61.2674 181.154C61.0856 180.79 60.8129 180.517 60.4492 180.335C60.0856 180.154 59.7219 180.063 59.2674 180.063H57.7219V184.608H59.2674C59.631 184.608 60.0856 184.517 60.4492 184.335Z" fill="#2C0405"/>
<path d="M63.9043 178.972H68.9043V180.063H65.2679V181.79H68.5407V182.881H65.2679V184.608H69.0861V185.699H63.9043V178.972Z" fill="#2C0405"/>
<path d="M73.6309 180.244C73.3581 180.154 72.9945 180.063 72.6309 180.063C72.3581 180.063 72.0854 180.154 71.9036 180.244C71.7218 180.335 71.6309 180.517 71.6309 180.699C71.6309 180.881 71.7218 181.063 71.8127 181.154C71.9036 181.244 72.0854 181.426 72.2672 181.426C72.54 181.517 72.8127 181.608 73.0854 181.699C73.449 181.79 73.8127 181.972 74.1763 182.063C74.449 182.244 74.7218 182.426 74.9036 182.699C75.0854 182.972 75.2672 183.335 75.1763 183.79C75.1763 184.154 75.0854 184.608 74.8127 184.881C74.54 185.154 74.2672 185.426 73.9036 185.608C73.449 185.79 72.9945 185.881 72.54 185.881C71.9945 185.881 71.449 185.79 70.9945 185.608C70.54 185.426 70.0854 185.154 69.6309 184.79L70.1763 183.699C70.54 183.972 70.9036 184.244 71.3581 184.426C71.7218 184.608 72.1763 184.699 72.54 184.699C72.8127 184.699 73.1763 184.608 73.3581 184.517C73.7218 184.335 73.7218 183.881 73.54 183.517L73.449 183.426C73.2672 183.335 73.1763 183.154 72.9945 183.154C72.8127 183.063 72.54 182.972 72.1763 182.881C71.8127 182.79 71.449 182.608 71.0854 182.517C70.8127 182.426 70.5399 182.154 70.3581 181.972C70.1763 181.699 69.9945 181.335 70.0854 180.972C70.0854 180.608 70.1763 180.244 70.3581 179.972C70.6309 179.699 70.9036 179.426 71.2672 179.244C71.7218 179.063 72.1763 178.972 72.6309 178.972C73.0854 178.972 73.54 179.063 73.9036 179.154C74.2672 179.244 74.7218 179.426 75.0854 179.699L74.54 180.79C74.3581 180.517 73.9945 180.335 73.6309 180.244Z" fill="#2C0405"/>
<path d="M76.541 178.972H77.8137V185.79H76.541V178.972Z" fill="#2C0405"/>
<path d="M84.0861 182.335H85.177V184.972C84.8134 185.244 84.3588 185.426 83.9043 185.608C83.4498 185.79 82.9952 185.881 82.4498 185.881C81.8134 185.881 81.177 185.699 80.6316 185.426C80.0861 185.154 79.6316 184.699 79.3588 184.154C78.9952 183.608 78.9043 182.972 78.9043 182.335C78.9043 181.699 79.0861 181.063 79.3588 180.608C79.7225 180.063 80.177 179.608 80.7225 179.335C81.2679 179.063 81.9043 178.881 82.5407 178.881C82.9952 178.881 83.5407 178.972 83.9952 179.154C84.4498 179.335 84.9043 179.517 85.177 179.881L84.4498 180.881C84.177 180.608 83.9043 180.426 83.5407 180.335C83.177 180.244 82.9043 180.154 82.5407 180.154C82.0861 180.154 81.7225 180.244 81.3588 180.426C80.2679 181.063 79.9043 182.517 80.5407 183.608C80.9952 184.335 81.7225 184.79 82.5407 184.79C82.8134 184.79 82.9952 184.79 83.2679 184.699C83.5407 184.608 83.8134 184.517 83.9952 184.335L84.0861 182.335Z" fill="#2C0405"/>
<path d="M91.5398 178.972H92.8125V185.79H91.6307L88.0852 181.063V185.79H86.8125V178.972H88.0852L91.6307 183.699L91.5398 178.972Z" fill="#2C0405"/>
<path d="M98.722 185.79L97.5401 183.79H95.7219V185.79H94.4492V178.972H97.2674C97.9947 178.881 98.7219 179.154 99.3583 179.517C99.8129 179.972 100.086 180.608 100.086 181.244C100.086 181.699 99.9947 182.154 99.722 182.608C99.4492 182.972 99.0856 183.244 98.722 183.426L100.267 185.699L98.722 185.79ZM95.7219 182.608H97.2674C97.7219 182.608 98.0856 182.517 98.4492 182.244C98.7219 181.972 98.8129 181.699 98.8129 181.335C98.8129 180.972 98.7219 180.608 98.4492 180.426C98.0856 180.244 97.722 180.063 97.3583 180.154H95.7219V182.608Z" fill="#2C0405"/>
<path d="M103.086 184.244C103.449 184.517 103.904 184.699 104.268 184.699C104.722 184.699 105.177 184.517 105.449 184.244C105.722 183.881 105.904 183.426 105.904 182.972V178.972H107.177V182.972C107.177 183.517 107.086 184.063 106.813 184.517C106.54 184.972 106.177 185.335 105.813 185.517C105.358 185.79 104.813 185.881 104.268 185.881C103.722 185.881 103.177 185.79 102.631 185.517C102.177 185.335 101.813 184.972 101.631 184.517C101.358 184.063 101.268 183.517 101.268 182.972V178.972H102.54V182.972C102.631 183.426 102.813 183.881 103.086 184.244Z" fill="#2C0405"/>
<path d="M112.086 180.244C111.813 180.154 111.45 180.063 111.086 180.063C110.813 180.063 110.54 180.154 110.359 180.244C110.177 180.335 110.086 180.517 110.086 180.699C110.086 180.881 110.177 181.063 110.268 181.154C110.359 181.244 110.54 181.426 110.722 181.426C110.995 181.517 111.268 181.608 111.54 181.699C111.904 181.79 112.268 181.972 112.631 182.063C112.904 182.244 113.177 182.426 113.359 182.699C113.54 182.972 113.722 183.335 113.631 183.79C113.631 184.154 113.54 184.608 113.268 184.881C112.995 185.154 112.722 185.426 112.359 185.608C111.904 185.79 111.45 185.881 110.995 185.881C110.45 185.881 109.904 185.79 109.45 185.608C108.995 185.426 108.54 185.154 108.086 184.79L108.631 183.699C108.995 183.972 109.359 184.244 109.813 184.426C110.177 184.608 110.631 184.699 110.995 184.699C111.268 184.699 111.631 184.608 111.813 184.517C112.177 184.335 112.177 183.881 111.995 183.517L111.904 183.426C111.722 183.335 111.631 183.154 111.45 183.154C111.268 183.063 110.995 182.972 110.631 182.881C110.268 182.79 109.904 182.608 109.54 182.517C109.268 182.426 108.995 182.154 108.813 181.972C108.631 181.699 108.45 181.335 108.54 180.972C108.54 180.608 108.631 180.244 108.813 179.972C109.086 179.699 109.359 179.426 109.722 179.244C110.177 179.063 110.631 178.972 111.086 178.972C111.54 178.972 111.995 179.063 112.359 179.154C112.722 179.244 113.177 179.426 113.54 179.699L112.995 180.79C112.813 180.517 112.45 180.335 112.086 180.244Z" fill="#2C0405"/>
<path d="M114.994 178.972H116.267V181.881H119.631V178.972H120.903V185.79H119.631V183.063H116.267V185.79H114.994V178.972Z" fill="#2C0405"/>
<path d="M123.358 184.609C123.449 184.699 123.54 184.881 123.54 185.154C123.54 185.336 123.449 185.518 123.358 185.699C123.268 185.79 123.086 185.881 122.904 185.881C122.722 185.881 122.54 185.79 122.449 185.699C122.358 185.518 122.268 185.336 122.268 185.154C122.268 184.972 122.358 184.79 122.449 184.609C122.54 184.518 122.722 184.427 122.904 184.427C123.086 184.427 123.268 184.518 123.358 184.609Z" fill="#2C0405"/>
<path d="M126.994 181.608C126.63 181.608 126.266 181.79 125.994 182.063C125.721 182.336 125.63 182.79 125.63 183.154C125.63 183.608 125.721 183.972 125.994 184.245C126.266 184.518 126.63 184.699 126.994 184.699C127.539 184.699 128.085 184.518 128.357 184.063L129.175 184.699C128.903 185.063 128.63 185.336 128.266 185.518C127.812 185.699 127.357 185.79 126.903 185.79C126.448 185.79 125.994 185.699 125.539 185.427C125.175 185.245 124.812 184.881 124.63 184.518C124.175 183.699 124.175 182.608 124.63 181.79C124.812 181.427 125.175 181.063 125.539 180.881C125.994 180.699 126.448 180.518 126.903 180.518C127.357 180.518 127.812 180.608 128.175 180.79C128.539 180.972 128.812 181.154 129.085 181.518L128.357 182.245C128.085 181.881 127.539 181.608 126.994 181.608Z" fill="#2C0405"/>
<path d="M133.814 180.881C134.177 181.063 134.541 181.427 134.814 181.79C135.086 182.245 135.177 182.699 135.177 183.154C135.177 183.608 135.086 184.154 134.814 184.518C134.541 184.881 134.268 185.245 133.814 185.427C133.359 185.608 132.905 185.79 132.359 185.79C131.814 185.79 131.359 185.699 130.905 185.427C130.541 185.245 130.177 184.881 129.905 184.518C129.632 184.063 129.541 183.608 129.541 183.154C129.541 182.699 129.632 182.154 129.905 181.79C130.177 181.427 130.45 181.063 130.905 180.881C131.359 180.608 131.814 180.518 132.359 180.518C132.905 180.518 133.359 180.608 133.814 180.881ZM131.359 182.063C130.814 182.699 130.814 183.699 131.359 184.336C131.632 184.608 131.996 184.79 132.45 184.79C132.814 184.79 133.268 184.608 133.541 184.336C134.086 183.699 134.086 182.699 133.541 182.063C133.268 181.79 132.905 181.608 132.45 181.608C131.996 181.608 131.632 181.699 131.359 182.063Z" fill="#2C0405"/>
<path d="M144.45 181.062C144.814 181.426 144.996 181.971 144.996 182.517V185.789H143.723V182.88C143.723 182.517 143.632 182.244 143.45 181.971C143.268 181.789 142.905 181.608 142.632 181.608C142.268 181.608 141.905 181.789 141.632 182.062C141.359 182.335 141.268 182.699 141.268 183.153V185.699H139.996V182.88C139.996 182.517 139.905 182.244 139.723 181.971C139.541 181.789 139.178 181.608 138.905 181.608C138.541 181.608 138.178 181.789 137.905 182.062C137.632 182.335 137.541 182.789 137.632 183.153V185.699H136.359V180.517H137.632V181.517C138.268 180.517 139.632 180.244 140.632 180.789C140.905 180.971 141.178 181.335 141.268 181.699C141.541 180.88 142.359 180.426 143.178 180.426C143.632 180.426 144.087 180.699 144.45 181.062Z" fill="#2C0405"/>
<path d="M86.4189 205.737L89.9419 202.097C90.1586 201.88 90.3319 201.681 90.4619 201.499C90.5919 201.317 90.6873 201.148 90.7479 200.992C90.8086 200.827 90.8389 200.663 90.8389 200.498C90.8389 200.143 90.7219 199.865 90.4879 199.666C90.2626 199.458 89.9636 199.354 89.5909 199.354C89.2269 199.354 88.8976 199.454 88.6029 199.653C88.3169 199.844 88.0396 200.16 87.7709 200.602L86.4059 199.419C86.7699 198.804 87.2336 198.34 87.7969 198.028C88.3603 197.716 89.0059 197.56 89.7339 197.56C90.3666 197.56 90.9126 197.677 91.3719 197.911C91.8399 198.145 92.1996 198.479 92.4509 198.912C92.7109 199.345 92.8409 199.852 92.8409 200.433C92.8409 200.797 92.7933 201.135 92.6979 201.447C92.6026 201.75 92.4466 202.054 92.2299 202.357C92.0219 202.652 91.7403 202.977 91.3849 203.332L88.9409 205.763L86.4189 205.737ZM86.4189 206.881V205.737L88.1479 205.139H93.0229V206.881H86.4189ZM97.7868 207.024C97.0502 207.024 96.3828 206.825 95.7848 206.426C95.1868 206.027 94.7145 205.473 94.3678 204.762C94.0298 204.043 93.8608 203.215 93.8608 202.279C93.8608 201.334 94.0298 200.511 94.3678 199.809C94.7058 199.098 95.1695 198.548 95.7588 198.158C96.3482 197.759 97.0155 197.56 97.7608 197.56C98.5148 197.56 99.1865 197.759 99.7758 198.158C100.365 198.548 100.829 199.098 101.167 199.809C101.513 200.52 101.687 201.347 101.687 202.292C101.687 203.237 101.513 204.064 101.167 204.775C100.829 205.486 100.365 206.04 99.7758 206.439C99.1952 206.829 98.5322 207.024 97.7868 207.024ZM97.7738 205.217C98.1552 205.217 98.4845 205.109 98.7618 204.892C99.0392 204.667 99.2515 204.337 99.3988 203.904C99.5548 203.462 99.6328 202.925 99.6328 202.292C99.6328 201.651 99.5548 201.113 99.3988 200.68C99.2515 200.247 99.0392 199.922 98.7618 199.705C98.4845 199.48 98.1508 199.367 97.7608 199.367C97.3882 199.367 97.0588 199.475 96.7728 199.692C96.4955 199.909 96.2832 200.234 96.1358 200.667C95.9885 201.1 95.9148 201.638 95.9148 202.279C95.9148 202.92 95.9885 203.458 96.1358 203.891C96.2832 204.324 96.4955 204.654 96.7728 204.879C97.0588 205.104 97.3925 205.217 97.7738 205.217ZM102.415 205.737L105.938 202.097C106.155 201.88 106.328 201.681 106.458 201.499C106.588 201.317 106.683 201.148 106.744 200.992C106.805 200.827 106.835 200.663 106.835 200.498C106.835 200.143 106.718 199.865 106.484 199.666C106.259 199.458 105.96 199.354 105.587 199.354C105.223 199.354 104.894 199.454 104.599 199.653C104.313 199.844 104.036 200.16 103.767 200.602L102.402 199.419C102.766 198.804 103.23 198.34 103.793 198.028C104.356 197.716 105.002 197.56 105.73 197.56C106.363 197.56 106.909 197.677 107.368 197.911C107.836 198.145 108.196 198.479 108.447 198.912C108.707 199.345 108.837 199.852 108.837 200.433C108.837 200.797 108.789 201.135 108.694 201.447C108.599 201.75 108.443 202.054 108.226 202.357C108.018 202.652 107.736 202.977 107.381 203.332L104.937 205.763L102.415 205.737ZM102.415 206.881V205.737L104.144 205.139H109.019V206.881H102.415ZM113.172 207.024C112.531 207.024 111.95 206.881 111.43 206.595C110.919 206.309 110.511 205.928 110.208 205.451C109.913 204.966 109.766 204.424 109.766 203.826C109.766 203.046 110.039 202.257 110.585 201.46L113.172 197.703H115.473L112.6 201.707L111.833 201.772C111.954 201.564 112.08 201.386 112.21 201.239C112.349 201.083 112.522 200.966 112.73 200.888C112.938 200.801 113.202 200.758 113.523 200.758C114.095 200.758 114.606 200.892 115.057 201.161C115.516 201.421 115.885 201.781 116.162 202.24C116.439 202.691 116.578 203.211 116.578 203.8C116.578 204.398 116.426 204.944 116.123 205.438C115.82 205.923 115.412 206.309 114.901 206.595C114.39 206.881 113.813 207.024 113.172 207.024ZM113.172 205.243C113.441 205.243 113.683 205.178 113.9 205.048C114.117 204.918 114.286 204.74 114.407 204.515C114.528 204.29 114.589 204.038 114.589 203.761C114.589 203.475 114.528 203.224 114.407 203.007C114.286 202.782 114.117 202.608 113.9 202.487C113.683 202.357 113.441 202.292 113.172 202.292C112.895 202.292 112.648 202.357 112.431 202.487C112.223 202.608 112.058 202.782 111.937 203.007C111.816 203.224 111.755 203.475 111.755 203.761C111.755 204.038 111.816 204.29 111.937 204.515C112.058 204.74 112.223 204.918 112.431 205.048C112.648 205.178 112.895 205.243 113.172 205.243Z" fill="white"/>
<line opacity="0.2" x1="46.5" y1="201.381" x2="78.5" y2="201.381" stroke="white"/>
<line opacity="0.2" x1="123.5" y1="201.381" x2="155.5" y2="201.381" stroke="white"/>
</svg>
